#!OML:ASF I:\Actors\actors\Patient Classification 2\Patient 1\Session 1\actor1.ASF
:FULLY-SPECIFIED
:DEGREES

415
root -0.568555 18.107 6.06378 4.31575 -25.8166 -2.17972
lowerback 0.224477 -6.32073 -1.44924
upperback -2.61283 -8.42897 2.17774
thorax -2.27795 -4.16677 3.18708
lowerneck -9.0128 2.58772 10.4626
upperneck 26.8656 -0.0308769 4.38417
head 10.1791 1.37195 -0.247598
rclavicle -5.20257e-014 -4.37326e-015
rhumerus 20.3835 58.271 -17.0565
rradius 134.341
rwrist -71.7077
rhand -2.37164 -56.5426
rfingers 7.12502
rthumb 23.3169 -85.1505
lclavicle -5.20257e-014 -4.37326e-015
lhumerus 17.8384 15.9796 79.4294
lradius 82.1064
lwrist 87.2401
lhand -41.4988 -7.95992
lfingers 7.12502
lthumb -14.4123 21.5197
rfemur 8.89234 14.0682 13.9596
rtibia -18.4232
rfoot 0.776291 -8.14566
rtoes -1.18232
lfemur 12.2917 14.6864 -13.2717
ltibia -9.54166e-015
lfoot -17.5481 14.1428
ltoes 3.41232
416
root -0.5696 18.1083 6.0618 4.3931 -25.8882 -2.19511
lowerback 0.159181 -6.26806 -1.36728
upperback -2.59247 -8.35712 2.15678
thorax -2.23952 -4.13343 3.1119
lowerneck -8.88714 2.60306 10.565
upperneck 26.469 0.0457803 4.32005
head 10.012 1.3925 -0.28301
rclavicle 1.90709e-014 1.31198e-014
rhumerus 19.8517 58.5641 -17.7314
rradius 133.56
rwrist -68.4598
rhand -3.40135 -55.7642
rfingers 7.12502
rthumb 22.3287 -84.494
lclavicle 1.90709e-014 1.31198e-014
lhumerus 17.2086 15.3099 78.7876
lradius 82.65
lwrist 85.7769
lhand -40.9413 -8.52818
lfingers 7.12502
lthumb -13.8751 20.989
rfemur 8.78925 13.9486 13.966
rtibia -18.4152
rfoot 0.884712 -8.05209
rtoes -1.4433
lfemur 12.248 14.7721 -13.2461
ltibia -1.43125e-014
lfoot -17.5812 13.9871
ltoes 3.74196
417
root -0.571227 18.1099 6.05908 4.46933 -25.9353 -2.24074
lowerback 0.168971 -6.22454 -1.2771
upperback -2.60131 -8.2974 2.16732
thorax -2.26872 -4.10472 3.07591
lowerneck -8.8641 2.62626 10.7301
upperneck 26.1214 0.123526 4.17835
head 9.88423 1.41536 -0.354118
rclavicle -1.08263e-013 9.74045e-015
rhumerus 19.0289 59.0311 -18.8318
rradius 132.548
rwrist -64.6998
rhand -4.85047 -54.6626
rfingers 7.12502
rthumb 20.9371 -83.5526
lclavicle -1.08263e-013 9.74045e-015
lhumerus 16.4258 14.5523 78.0391
lradius 83.3472
lwrist 84.1484
lhand -40.4158 -9.03721
lfingers 7.12502
lthumb -13.3686 20.5139
rfemur 8.69625 13.8339 14.0141
rtibia -18.3862
rfoot 0.966554 -7.94578
rtoes -2.01721
lfemur 12.2049 14.835 -13.193
ltibia -2.70347e-014
lfoot -17.5879 13.8827
ltoes 3.71837
418
root -0.574496 18.1121 6.05503 4.55479 -25.9526 -2.3148
lowerback 0.140367 -6.17763 -1.15604
upperback -2.58948 -8.23253 2.17477
thorax -2.26002 -4.07485 3.01379
lowerneck -8.77826 2.64058 10.7801
upperneck 25.568 0.199686 4.18533
head 9.66992 1.43251 -0.35644
rclavicle -4.38444e-014 -1.03368e-014
rhumerus 17.6549 59.5223 -20.7414
rradius 131.179
rwrist -59.9525
rhand -3.68337 -58.1704
rfingers 7.12502
rthumb 22.058 -86.9324
lclavicle -4.38444e-014 -1.03368e-014
lhumerus 15.5655 13.7659 77.2471
lradius 84.2284
lwrist 82.6174
lhand -39.8665 -9.39902
lfingers 7.12502
lthumb -12.839 20.1861
rfemur 8.59973 13.7179 14.098
rtibia -18.3568
rfoot 1.03427 -7.85335
rtoes -2.50172
lfemur 12.1468 14.8695 -13.1098
ltibia -7.95139e-015
lfoot -17.5904 13.82
ltoes 3.9353
419
root -0.578045 18.1135 6.05101 4.59049 -25.9706 -2.32034
lowerback 0.0366013 -6.10317 -1.0712
upperback -2.53616 -8.13198 2.13773
thorax -2.16969 -4.02817 2.91348
lowerneck -8.66173 2.63511 10.7756
upperneck 24.9506 0.258796 4.23169
head 9.42742 1.4374 -0.339
rclavicle 6.17102e-014 1.59028e-015
rhumerus 16.0344 60.3592 -22.9839
rradius 129.708
rwrist -56.1434
rhand -6.01 -56.0713
rfingers 7.12502
rthumb 19.8227 -85.0805
lclavicle 6.17102e-014 1.59028e-015
lhumerus 14.7418 12.9884 76.4286
lradius 85.1881
lwrist 81.4874
lhand -39.0718 -9.78057
lfingers 7.12502
lthumb -12.0729 19.8512
rfemur 8.52631 13.6438 14.1115
rtibia -18.3266
rfoot 1.05642 -7.78103
rtoes -2.83492
lfemur 12.1058 14.9001 -13.0937
ltibia 7.95139e-015
lfoot -17.5805 13.7843
ltoes 4.2371
420
root -0.581483 18.1131 6.04611 4.53256 -25.9808 -2.28767
lowerback 0.0401358 -6.00821 -0.995711
upperback -2.48099 -8.00485 2.07485
thorax -2.14079 -3.967 2.80493
lowerneck -8.71351 2.62721 10.8851
upperneck 24.5601 0.293257 4.10455
head 9.2994 1.43607 -0.399257
rclavicle 5.97317e-014 -3.18055e-015
rhumerus 14.0112 61.0688 -25.7974
rradius 128.065
rwrist -51.9605
rhand -7.46765 -52.5882
rfingers 7.12502
rthumb 18.421 -81.736
lclavicle 5.97317e-014 -3.18055e-015
lhumerus 13.8819 12.1344 75.5078
lradius 86.2145
lwrist 80.2909
lhand -38.2193 -10.0644
lfingers 7.12502
lthumb -11.2508 19.6139
rfemur 8.55124 13.6015 14.1045
rtibia -18.3017
rfoot 1.07022 -7.71855
rtoes -2.98794
lfemur 12.1424 14.912 -13.096
ltibia 1.59028e-015
lfoot -17.576 13.772
ltoes 4.34867
421
root -0.585536 18.1123 6.03869 4.47873 -25.9455 -2.32435
lowerback 0.184731 -5.90736 -0.861824
upperback -2.46603 -7.86872 2.03404
thorax -2.23672 -3.90017 2.70678
lowerneck -8.85787 2.61719 11.0732
upperneck 24.2708 0.317904 3.8566
head 9.22544 1.4309 -0.512869
rclavicle -1.86267e-014 9.34288e-015
rhumerus 11.5741 61.7934 -29.1545
rradius 126.351
rwrist -47.7223
rhand -8.17437 -47.5442
rfingers 7.12502
rthumb 17.7411 -76.7549
lclavicle -1.86267e-014 9.34288e-015
lhumerus 12.9807 11.2587 74.575
lradius 87.3395
lwrist 78.889
lhand -37.7792 -10.1126
lfingers 7.12502
lthumb -10.8263 19.5883
rfemur 8.62411 13.5886 14.1849
rtibia -18.3001
rfoot 1.05759 -7.73156
rtoes -2.84224
lfemur 12.1837 14.8787 -13.0187
ltibia -4.77083e-015
lfoot -17.5277 13.7962
ltoes 4.21637
